<svg width="67" height="70" viewBox="0 0 67 70" fill="none" xmlns="http://www.w3.org/2000/svg">
<path d="M23.0538 12.301L15.668 17.2419V51.1444L23.0538 47.8623V12.301Z" fill="white"/>
<path d="M42.6637 28.1986L46.2791 30.0386V19.1295L40.5121 15.3564V29.3474L35.5902 31.9692V43.4098L42.6637 46.7109V28.1986Z" fill="white"/>
<path d="M52.8933 39.2128L50.2007 37.8423V50.2268L52.8933 51.4829V39.2128Z" fill="white"/>
<path d="M52.8933 53.0275L50.2007 51.7714L42.6638 48.2534L35.5902 44.9523L34.3552 44.3755L33.0507 44.9547L30.4356 46.1154L23.0539 49.3951L15.668 52.6795L6.70001 56.6623L15.668 53.621L23.0539 51.1135L30.4356 48.6061L33.0507 47.7195L34.3552 47.2762L35.5902 47.7171L42.6638 50.2388L50.2007 52.9274L52.8933 53.8855L60.6814 56.6623L52.8933 53.0275Z" fill="white"/>
<path d="M33.0508 0V43.422L30.4357 44.5827V16.5055L25.7445 13.8122V6.01587L33.0508 0Z" fill="white"/>
<path d="M63.0436 70C62.3163 70 61.6415 69.886 61.0194 69.658C60.406 69.4212 59.8714 69.088 59.4158 68.6583C58.9689 68.2286 58.6183 67.7244 58.3642 67.1456C58.1101 66.5581 57.983 65.9136 57.983 65.212C57.983 64.5105 58.1101 63.8703 58.3642 63.2916C58.6183 62.704 58.9689 62.1954 59.4158 61.7658C59.8714 61.3361 60.406 61.0072 61.0194 60.7792C61.6415 60.5425 62.3163 60.4241 63.0436 60.4241C63.8936 60.4241 64.6516 60.5731 65.3175 60.8713C65.9923 61.1694 66.5531 61.5991 67 62.1604L65.3438 63.6599C65.0459 63.3091 64.7173 63.0417 64.358 62.8575C64.0075 62.6734 63.6132 62.5813 63.175 62.5813C62.7982 62.5813 62.4521 62.6427 62.1366 62.7654C61.8212 62.8882 61.5495 63.068 61.3217 63.3047C61.1026 63.5327 60.9273 63.809 60.7959 64.1334C60.6732 64.4579 60.6119 64.8174 60.6119 65.212C60.6119 65.6066 60.6732 65.9662 60.7959 66.2906C60.9273 66.6151 61.1026 66.8957 61.3217 67.1325C61.5495 67.3605 61.8212 67.5358 62.1366 67.6586C62.4521 67.7814 62.7982 67.8428 63.175 67.8428C63.6132 67.8428 64.0075 67.7507 64.358 67.5665C64.7173 67.3824 65.0459 67.1149 65.3438 66.7642L67 68.2637C66.5531 68.8161 65.9923 69.2458 65.3175 69.5527C64.6516 69.8509 63.8936 70 63.0436 70Z" fill="white"/>
<path d="M52.0171 64.1728H56.289V66.1196H52.0171V64.1728ZM52.2012 67.8032H57.012V69.8158H49.6249V60.6082H56.8411V62.6207H52.2012V67.8032Z" fill="white"/>
<path d="M44.3481 70C43.5945 70 42.8672 69.9079 42.1661 69.7237C41.4739 69.5308 40.9087 69.2853 40.4705 68.9871L41.3249 67.0667C41.7368 67.3298 42.2099 67.549 42.7445 67.7244C43.2878 67.891 43.8267 67.9743 44.3612 67.9743C44.7205 67.9743 45.0097 67.9436 45.2287 67.8822C45.4478 67.8121 45.6055 67.7244 45.7019 67.6192C45.8071 67.5052 45.8597 67.3736 45.8597 67.2245C45.8597 67.0141 45.7633 66.8475 45.5705 66.7247C45.3777 66.6019 45.128 66.5011 44.8213 66.4222C44.5146 66.3432 44.1728 66.2643 43.796 66.1854C43.428 66.1065 43.0556 66.0056 42.6788 65.8829C42.3107 65.7601 41.9733 65.6022 41.6667 65.4093C41.36 65.2076 41.1102 64.9489 40.9174 64.6333C40.7246 64.3088 40.6283 63.901 40.6283 63.41C40.6283 62.8575 40.7772 62.3577 41.0752 61.9104C41.3819 61.4632 41.8375 61.1037 42.4422 60.8318C43.0468 60.56 43.8004 60.4241 44.703 60.4241C45.3076 60.4241 45.8991 60.4942 46.4774 60.6345C47.0646 60.7661 47.5859 60.9634 48.0416 61.2264L47.2398 63.16C46.8017 62.9233 46.3679 62.7479 45.9385 62.6339C45.5092 62.5111 45.0929 62.4497 44.6898 62.4497C44.3306 62.4497 44.0414 62.4892 43.8223 62.5681C43.6032 62.6383 43.4455 62.7347 43.3491 62.8575C43.2527 62.9803 43.2045 63.1206 43.2045 63.2784C43.2045 63.4801 43.2965 63.6423 43.4806 63.7651C43.6733 63.8791 43.9231 63.9756 44.2298 64.0545C44.5452 64.1246 44.887 64.1992 45.255 64.2781C45.6318 64.357 46.0043 64.4579 46.3723 64.5806C46.7491 64.6946 47.0908 64.8525 47.3975 65.0542C47.7042 65.2471 47.9496 65.5058 48.1336 65.8302C48.3264 66.1459 48.4228 66.5449 48.4228 67.0272C48.4228 67.5622 48.2694 68.0576 47.9627 68.5136C47.6648 68.9608 47.2135 69.3204 46.6089 69.5922C46.013 69.8641 45.2594 70 44.3481 70Z" fill="white"/>
<path d="M34.6383 70C33.9022 70 33.2231 69.8816 32.601 69.6448C31.9788 69.4081 31.4355 69.0748 30.9711 68.6451C30.5154 68.2067 30.1605 67.6981 29.9064 67.1193C29.6523 66.5405 29.5252 65.9048 29.5252 65.212C29.5252 64.5193 29.6523 63.8835 29.9064 63.3047C30.1605 62.726 30.5154 62.2217 30.9711 61.7921C31.4355 61.3536 31.9788 61.016 32.601 60.7792C33.2231 60.5425 33.9022 60.4241 34.6383 60.4241C35.3832 60.4241 36.0623 60.5425 36.6757 60.7792C37.2978 61.016 37.8368 61.3536 38.2924 61.7921C38.7481 62.2217 39.103 62.726 39.3571 63.3047C39.62 63.8835 39.7514 64.5193 39.7514 65.212C39.7514 65.9048 39.62 66.5449 39.3571 67.1325C39.103 67.7112 38.7481 68.2155 38.2924 68.6451C37.8368 69.0748 37.2978 69.4081 36.6757 69.6448C36.0623 69.8816 35.3832 70 34.6383 70ZM34.6383 67.8428C34.9888 67.8428 35.3131 67.7814 35.611 67.6586C35.9177 67.5358 36.1806 67.3605 36.3997 67.1325C36.6275 66.8957 36.8027 66.6151 36.9254 66.2906C37.0569 65.9662 37.1226 65.6066 37.1226 65.212C37.1226 64.8086 37.0569 64.4491 36.9254 64.1334C36.8027 63.809 36.6275 63.5327 36.3997 63.3047C36.1806 63.068 35.9177 62.8882 35.611 62.7654C35.3131 62.6427 34.9888 62.5813 34.6383 62.5813C34.2878 62.5813 33.9592 62.6427 33.6525 62.7654C33.3546 62.8882 33.0917 63.068 32.8638 63.3047C32.6448 63.5327 32.4695 63.809 32.3381 64.1334C32.2154 64.4491 32.1541 64.8086 32.1541 65.212C32.1541 65.6066 32.2154 65.9662 32.3381 66.2906C32.4695 66.6151 32.6448 66.8957 32.8638 67.1325C33.0917 67.3605 33.3546 67.5358 33.6525 67.6586C33.9592 67.7814 34.2878 67.8428 34.6383 67.8428Z" fill="white"/>
<path d="M20.2685 69.8158V60.6082H24.4747C25.3159 60.6082 26.0388 60.7441 26.6435 61.0159C27.2569 61.2878 27.7301 61.6824 28.063 62.1998C28.396 62.7084 28.5625 63.3134 28.5625 64.015C28.5625 64.7077 28.396 65.3084 28.063 65.817C27.7301 66.3169 27.2569 66.7027 26.6435 66.9745C26.0388 67.2376 25.3159 67.3692 24.4747 67.3692H21.7144L22.8711 66.2774V69.8158H20.2685ZM25.96 69.8158L23.6729 66.4616H26.4463L28.7465 69.8158H25.96ZM22.8711 66.5536L21.7144 65.3566H24.3169C24.8602 65.3566 25.2633 65.2383 25.5262 65.0015C25.7978 64.7647 25.9337 64.4359 25.9337 64.015C25.9337 63.5853 25.7978 63.252 25.5262 63.0153C25.2633 62.7785 24.8602 62.6601 24.3169 62.6601H21.7144L22.8711 61.4631V66.5536Z" fill="white"/>
<path d="M13.8295 64.1728H18.1014V66.1196H13.8295V64.1728ZM14.0135 67.8032H18.8243V69.8158H11.4373V60.6082H18.6535V62.6207H14.0135V67.8032Z" fill="white"/>
<path d="M0 69.8158L4.06158 60.6082H6.62471L10.6994 69.8158H7.99171L4.8108 61.8841H5.83605L2.65514 69.8158H0ZM2.22138 68.0268L2.89174 66.1064H7.38708L8.05743 68.0268H2.22138Z" fill="white"/>
</svg>
