<svg width="50" height="52" viewBox="0 0 50 52" fill="none" xmlns="http://www.w3.org/2000/svg">
<path d="M17.2043 9.13794L11.6925 12.8083V37.993L17.2043 35.5549V9.13794Z" fill="#0B0C0C"/>
<path d="M31.8386 20.9477L34.5367 22.3145V14.2106L30.2329 11.4078V21.8011L26.5599 23.7487V32.2475L31.8386 34.6997V20.9477Z" fill="#0B0C0C"/>
<path d="M39.4726 29.1295L37.4632 28.1114V37.3113L39.4726 38.2444V29.1295Z" fill="#0B0C0C"/>
<path d="M39.4726 39.3917L37.4632 38.4586L31.8386 35.8453L26.5599 33.393L25.6382 32.9645L24.6647 33.3948L22.7132 34.2571L17.2044 36.6934L11.6925 39.1332L5 42.0919L11.6925 39.8326L17.2044 37.97L22.7132 36.1073L24.6647 35.4487L25.6382 35.1193L26.5599 35.4469L31.8386 37.3202L37.4632 39.3174L39.4726 40.0291L45.2846 42.0919L39.4726 39.3917Z" fill="#0B0C0C"/>
<path d="M24.6647 0V32.2563L22.7132 33.1186V12.2612L19.2123 10.2605V4.46893L24.6647 0Z" fill="#0B0C0C"/>
<path d="M47.0475 52C46.5047 52 46.0011 51.9153 45.5368 51.746C45.0791 51.5701 44.6802 51.3226 44.3401 51.0034C44.0066 50.6842 43.745 50.3096 43.5554 49.8797C43.3658 49.4432 43.2709 48.9644 43.2709 48.4433C43.2709 47.9221 43.3658 47.4466 43.5554 47.0167C43.745 46.5802 44.0066 46.2024 44.3401 45.8832C44.6802 45.564 45.0791 45.3197 45.5368 45.1503C46.0011 44.9744 46.5047 44.8865 47.0475 44.8865C47.6818 44.8865 48.2474 44.9972 48.7444 45.2187C49.248 45.4402 49.6665 45.7594 50 46.1763L48.7641 47.2903C48.5417 47.0297 48.2965 46.831 48.0284 46.6942C47.7668 46.5574 47.4725 46.489 47.1455 46.489C46.8644 46.489 46.606 46.5346 46.3706 46.6258C46.1352 46.717 45.9325 46.8505 45.7625 47.0264C45.599 47.1958 45.4682 47.401 45.3701 47.642C45.2785 47.883 45.2328 48.1501 45.2328 48.4433C45.2328 48.7364 45.2785 49.0035 45.3701 49.2445C45.4682 49.4855 45.599 49.694 45.7625 49.8699C45.9325 50.0393 46.1352 50.1695 46.3706 50.2607C46.606 50.3519 46.8644 50.3975 47.1455 50.3975C47.4725 50.3975 47.7668 50.3291 48.0284 50.1923C48.2965 50.0555 48.5417 49.8569 48.7641 49.5963L50 50.7102C49.6665 51.1206 49.248 51.4398 48.7444 51.6678C48.2474 51.8893 47.6818 52 47.0475 52Z" fill="#0B0C0C"/>
<path d="M38.8188 47.6713H42.0067V49.1175H38.8188V47.6713ZM38.9561 50.3682H42.5463V51.8632H37.0335V45.0233H42.4187V46.5183H38.9561V50.3682Z" fill="#0B0C0C"/>
<path d="M33.0955 52C32.5332 52 31.9904 51.9316 31.4672 51.7948C30.9506 51.6515 30.5288 51.4691 30.2018 51.2476L30.8394 49.821C31.1468 50.0165 31.4999 50.1793 31.8988 50.3096C32.3043 50.4334 32.7064 50.4952 33.1054 50.4952C33.3735 50.4952 33.5893 50.4724 33.7528 50.4268C33.9162 50.3747 34.034 50.3096 34.1059 50.2314C34.1844 50.1467 34.2236 50.049 34.2236 49.9383C34.2236 49.7819 34.1517 49.6582 34.0078 49.567C33.8639 49.4758 33.6776 49.4009 33.4487 49.3422C33.2198 49.2836 32.9648 49.225 32.6836 49.1663C32.4089 49.1077 32.131 49.0328 31.8498 48.9416C31.5751 48.8504 31.3234 48.7332 31.0945 48.5898C30.8656 48.44 30.6792 48.2478 30.5354 48.0133C30.3915 47.7723 30.3196 47.4694 30.3196 47.1046C30.3196 46.6942 30.4307 46.3229 30.6531 45.9907C30.8819 45.6584 31.222 45.3914 31.6732 45.1894C32.1244 44.9875 32.6868 44.8865 33.3604 44.8865C33.8116 44.8865 34.253 44.9386 34.6846 45.0428C35.1228 45.1406 35.5119 45.2871 35.8519 45.4826L35.2536 46.9189C34.9266 46.7431 34.6029 46.6128 34.2825 46.5281C33.962 46.4369 33.6514 46.3913 33.3506 46.3913C33.0825 46.3913 32.8667 46.4206 32.7032 46.4792C32.5397 46.5313 32.422 46.603 32.35 46.6942C32.2781 46.7854 32.2421 46.8896 32.2421 47.0069C32.2421 47.1567 32.3108 47.2772 32.4481 47.3684C32.592 47.4531 32.7784 47.5248 33.0073 47.5834C33.2427 47.6355 33.4977 47.6909 33.7724 47.7495C34.0536 47.8081 34.3315 47.883 34.6062 47.9742C34.8873 48.0589 35.1424 48.1762 35.3713 48.326C35.6001 48.4693 35.7833 48.6615 35.9206 48.9025C36.0644 49.137 36.1364 49.4334 36.1364 49.7917C36.1364 50.1891 36.0219 50.5571 35.7931 50.8959C35.5707 51.2281 35.2339 51.4952 34.7827 51.6971C34.338 51.8991 33.7756 52 33.0955 52Z" fill="#0B0C0C"/>
<path d="M25.8495 52C25.3002 52 24.7934 51.9121 24.3291 51.7362C23.8648 51.5603 23.4593 51.3128 23.1128 50.9936C22.7727 50.6679 22.5079 50.29 22.3182 49.8601C22.1286 49.4302 22.0338 48.9579 22.0338 48.4433C22.0338 47.9286 22.1286 47.4564 22.3182 47.0264C22.5079 46.5965 22.7727 46.2219 23.1128 45.9027C23.4593 45.577 23.8648 45.3262 24.3291 45.1503C24.7934 44.9744 25.3002 44.8865 25.8495 44.8865C26.4054 44.8865 26.9122 44.9744 27.3699 45.1503C27.8342 45.3262 28.2364 45.577 28.5765 45.9027C28.9165 46.2219 29.1814 46.5965 29.371 47.0264C29.5672 47.4564 29.6653 47.9286 29.6653 48.4433C29.6653 48.9579 29.5672 49.4334 29.371 49.8699C29.1814 50.2998 28.9165 50.6744 28.5765 50.9936C28.2364 51.3128 27.8342 51.5603 27.3699 51.7362C26.9122 51.9121 26.4054 52 25.8495 52ZM25.8495 50.3975C26.1111 50.3975 26.353 50.3519 26.5754 50.2607C26.8043 50.1695 27.0005 50.0393 27.1639 49.8699C27.334 49.694 27.4648 49.4855 27.5563 49.2445C27.6544 49.0035 27.7034 48.7364 27.7034 48.4433C27.7034 48.1436 27.6544 47.8765 27.5563 47.642C27.4648 47.401 27.334 47.1958 27.1639 47.0264C27.0005 46.8505 26.8043 46.717 26.5754 46.6258C26.353 46.5346 26.1111 46.489 25.8495 46.489C25.5879 46.489 25.3427 46.5346 25.1138 46.6258C24.8915 46.717 24.6953 46.8505 24.5253 47.0264C24.3618 47.1958 24.231 47.401 24.1329 47.642C24.0414 47.8765 23.9956 48.1436 23.9956 48.4433C23.9956 48.7364 24.0414 49.0035 24.1329 49.2445C24.231 49.4855 24.3618 49.694 24.5253 49.8699C24.6953 50.0393 24.8915 50.1695 25.1138 50.2607C25.3427 50.3519 25.5879 50.3975 25.8495 50.3975Z" fill="#0B0C0C"/>
<path d="M15.1257 51.8632V45.0233H18.2647C18.8924 45.0233 19.432 45.1243 19.8832 45.3262C20.3409 45.5282 20.6941 45.8213 20.9426 46.2056C21.1911 46.5835 21.3153 47.033 21.3153 47.5541C21.3153 48.0687 21.1911 48.5149 20.9426 48.8928C20.6941 49.2641 20.3409 49.5507 19.8832 49.7526C19.432 49.9481 18.8924 50.0458 18.2647 50.0458H16.2047L17.0679 49.2348V51.8632H15.1257ZM19.3731 51.8632L17.6663 49.3716H19.736L21.4526 51.8632H19.3731ZM17.0679 49.44L16.2047 48.5508H18.147C18.5524 48.5508 18.8532 48.4628 19.0494 48.2869C19.2521 48.1111 19.3535 47.8668 19.3535 47.5541C19.3535 47.2349 19.2521 46.9874 19.0494 46.8115C18.8532 46.6356 18.5524 46.5476 18.147 46.5476H16.2047L17.0679 45.6585V49.44Z" fill="#0B0C0C"/>
<path d="M10.3205 47.6713H13.5085V49.1175H10.3205V47.6713ZM10.4579 50.3682H14.048V51.8632H8.53528V45.0233H13.9205V46.5183H10.4579V50.3682Z" fill="#0B0C0C"/>
<path d="M0 51.8632L3.03103 45.0233H4.94381L7.98465 51.8632H5.96396L3.59015 45.9711H4.35526L1.98145 51.8632H0ZM1.65775 50.5343L2.15801 49.1077H5.51274L6.01301 50.5343H1.65775Z" fill="#0B0C0C"/>
</svg>
