<svg width="19" height="19" viewBox="0 0 19 19" fill="none" xmlns="http://www.w3.org/2000/svg">
<path d="M1.5835 9.50001C1.5835 6.51444 1.5835 5.02166 2.51099 4.09417C3.43849 3.16667 4.93127 3.16667 7.91683 3.16667H11.0835C14.0691 3.16667 15.5618 3.16667 16.4893 4.09417C17.4168 5.02166 17.4168 6.51444 17.4168 9.50001C17.4168 12.4856 17.4168 13.9783 16.4893 14.9058C15.5618 15.8333 14.0691 15.8333 11.0835 15.8333H7.91683C4.93127 15.8333 3.43849 15.8333 2.51099 14.9058C1.5835 13.9783 1.5835 12.4856 1.5835 9.50001Z" stroke="#007AFF" stroke-width="1.5"/>
<path d="M4.75 6.33333L6.45913 7.7576C7.91313 8.96927 8.64013 9.5751 9.5 9.5751C10.3599 9.5751 11.0869 8.96927 12.5409 7.7576L14.25 6.33333" stroke="#007AFF" stroke-width="1.5" stroke-linecap="round"/>
</svg>
