<svg width="19" height="19" viewBox="0 0 19 19" fill="none" xmlns="http://www.w3.org/2000/svg">
<path d="M7.94626 4.20863L8.46006 5.12929C8.92374 5.96012 8.73761 7.05004 8.00732 7.78034C8.00732 7.78034 8.00732 7.78034 8.00731 7.78034C8.0072 7.78046 7.1216 8.66627 8.72758 10.2723C10.3329 11.8776 11.2187 10.9933 11.2195 10.9925C11.2195 10.9925 11.2195 10.9925 11.2195 10.9925C11.9498 10.2622 13.0397 10.0761 13.8705 10.5398L14.7912 11.0536C16.0458 11.7537 16.1939 13.5131 15.0912 14.6159C14.4286 15.2785 13.6168 15.7941 12.7195 15.8281C11.2089 15.8854 8.64347 15.5031 6.0701 12.9297C3.49673 10.3564 3.11442 7.79097 3.17169 6.28036C3.20571 5.38301 3.72131 4.57127 4.38393 3.90864C5.48669 2.80589 7.2461 2.95405 7.94626 4.20863Z" stroke="#007AFF" stroke-width="1.5" stroke-linecap="round"/>
</svg>
