<svg width="16" height="13" viewBox="0 0 16 13" fill="none" xmlns="http://www.w3.org/2000/svg">
<path d="M14.6359 0.114758C14.6359 0.114758 16.116 -0.447933 15.9927 0.918657C15.9516 1.48138 15.5816 3.45088 15.2938 5.58115L14.307 11.8916C14.307 11.8916 14.2248 12.8161 13.4847 12.9768C12.7446 13.1376 11.6346 12.4142 11.429 12.2534C11.2645 12.1328 8.34544 10.324 7.31757 9.43977C7.02976 9.19863 6.70084 8.71627 7.35866 8.15355L11.6757 4.13419C12.1691 3.65187 12.6624 2.52642 10.6067 3.89301L4.85073 7.71145C4.85073 7.71145 4.19287 8.11337 2.95946 7.75163L0.287019 6.94777C0.287019 6.94777 -0.699731 6.34486 0.985963 5.74192C5.09741 3.85279 10.1545 1.92348 14.6359 0.114758Z" fill="white"/>
</svg>
