<svg width="18" height="18" viewBox="0 0 18 18" fill="none" xmlns="http://www.w3.org/2000/svg">
<path fill-rule="evenodd" clip-rule="evenodd" d="M9.03783 0C11.4354 0.000883636 13.6858 0.929782 15.3779 2.61583C17.0702 4.30187 18.0015 6.54267 18 8.92633C17.9979 13.844 13.9771 17.8455 9.03754 17.8455H9.03395C7.53417 17.8449 6.0601 17.4705 4.75112 16.7598L0 18L1.2716 13.3779C0.487454 12.0255 0.0747805 10.491 0.0753724 8.9189C0.0771482 4.00097 4.09799 0 9.03783 0ZM9.03514 16.339H9.03813C13.1439 16.339 16.4855 13.0133 16.4871 8.92515C16.4877 6.94417 15.7137 5.08163 14.3072 3.68041C12.9008 2.27919 11.0305 1.50686 9.04083 1.50627C4.93205 1.50627 1.59009 4.83163 1.58861 8.9192C1.58798 10.3201 1.98184 11.6841 2.72741 12.8645L2.90446 13.1452L2.15202 15.8809L4.97155 15.1449L5.24367 15.3056C6.38727 15.9809 7.69833 16.3384 9.03514 16.339ZM11.5936 10.0615C11.7991 10.1359 12.8999 10.6749 13.1239 10.7865C13.1672 10.8081 13.2077 10.8276 13.2453 10.8457C13.4021 10.9211 13.5079 10.9721 13.5531 11.0472C13.609 11.1401 13.609 11.5865 13.4224 12.1071C13.2358 12.6276 12.3413 13.1026 11.9109 13.1666C11.5249 13.224 11.0368 13.2479 10.5003 13.0782C10.1749 12.9755 9.75801 12.8386 9.2236 12.6089C7.12337 11.7063 5.70429 9.68014 5.43697 9.29851C5.41835 9.27193 5.40533 9.25331 5.39806 9.24362L5.39721 9.24251C5.28198 9.08993 4.48353 8.03258 4.48353 6.93825C4.48353 5.91212 4.9898 5.37424 5.22315 5.1263C5.23926 5.10915 5.25409 5.09341 5.26735 5.07898C5.47281 4.85575 5.71534 4.80011 5.86457 4.80011C6.0138 4.80011 6.16333 4.80129 6.29372 4.80783C6.30983 4.80865 6.3266 4.80855 6.34393 4.80842C6.47449 4.80764 6.6371 4.80669 6.79765 5.19028C6.8596 5.33844 6.9504 5.5584 7.04609 5.79021C7.23857 6.25637 7.45081 6.77052 7.48816 6.84507C7.5441 6.95667 7.58146 7.08676 7.50671 7.23557C7.49533 7.25812 7.48484 7.27943 7.47481 7.29979C7.41884 7.41325 7.37757 7.497 7.2827 7.60729C7.24547 7.65059 7.207 7.69726 7.16849 7.74393C7.09131 7.83746 7.0141 7.93106 6.94688 7.99776C6.83471 8.1088 6.7181 8.22934 6.84878 8.45254C6.97947 8.67548 7.42894 9.40523 8.09466 9.99632C8.81004 10.6316 9.43193 10.9 9.74729 11.0362C9.80899 11.0628 9.85894 11.0843 9.89557 11.1026C10.1193 11.2142 10.25 11.1957 10.3807 11.0469C10.5113 10.8981 10.9405 10.3963 11.0897 10.1731C11.239 9.94988 11.3885 9.98709 11.5936 10.0615Z" fill="white"/>
</svg>
